<svg xmlns="http://www.w3.org/2000/svg" viewBox="0 0 1200 1920"><path fill="#e7b733" d="M842.059 1897.11c-109.813 0-219.145 0-328.489-.005-123.355 0-246.71-.144-370.066.114-25.313.054-46.629-6.586-67.375-16.567-17.04-8.195-24.86-20.523-32-33.336-8.45-15.156-11.438-31.074-11.43-47.57.176-559.578.188-1119.16-.082-1678.738-.004-16.5 2.465-32.305 10.645-47.63 5.183-9.718 12.093-18.706 21.058-26.745 2.368-2.125 6.223-3.332 9.371-4.985 20.356-10.683 42.207-17.55 67.93-17.449 78.656.309 157.309.11 235.969.11h304.183c124.606.003 249.207.046 373.813-.028 21.547-.011 39.805 6.39 58.184 13.914 23.878 9.778 32.535 26.664 41.011 43.844 6.04 12.23 7.563 25.008 7.528 38.04-.25 82.82-.18 165.64-.204 248.46-.011 27.406.008 54.816-.003 82.227-.094 222.074-.192 444.144-.286 666.218-.011 23.145-.035 46.29.012 69.434.05 22.914.254 45.828.258 68.742.035 133.035-.024 266.07.066 399.11.032 50.554.477 101.109.5 151.664.012 24.726-9.96 47.207-30.297 66.847-4.152 4.012-10.812 6.711-16.652 9.649-18.816 9.465-39.23 14.953-62.46 14.77-38.47-.31-76.942.042-115.415.046-31.77.004-63.535-.09-95.77-.137m251.325-21.312c6.367-3.488 13.472-6.434 18.969-10.559 20.25-15.21 30.652-34.222 31.125-55.097 1.113-49.055.421-98.133.343-147.204 0-1.48-.91-3.12-1.992-4.417-3.902-4.688-8.039-9.27-12.14-13.868-1-1.12-2.192-2.144-3.301-3.21-.899 1.788-1.137 3.171-.86 4.492 2.856 13.5 6.137 26.953 8.614 40.484 2.16 11.832 4.117 23.727 4.925 35.64.856 12.618.993 25.317.067 37.926-.824 11.2-2.563 22.473-5.633 33.446-5.023 17.968-14.984 34.074-34.078 46.855-24.098 16.133-64.094 16.383-86.344-5.922-16.25-16.293-19.902-34.629-14.43-54.117 2.11-7.512 5.98-14.516 13.782-20 11.683-8.226 25.965-8.207 37.187.313 10.446 7.925 13.778 17.671 11.383 28.312-.855 3.785-3.25 7.738-6.398 10.793-4.29 4.16-11.391 3.383-15.204-1.07-3.23-3.782-3.96-7.707-.226-11.614 2.918-3.062 3.265-6.359 1.773-9.867-2.636-6.183-11.48-7.832-17.613-3.242-1.086.813-2.102 1.711-2.918 2.68-8.152 9.68-7.871 19.98-4.355 30.625 4.406 13.34 22.968 28.101 47.492 25.847 13.469-1.234 24.62-5.34 33.308-13.03.985-.868 1.516-2.016 2.797-3.778-2.746.3-4.226.496-5.715.617-3.984.324-7.988.93-11.96.844-6.458-.14-11.727-3.61-13.008-8-1.203-4.094.78-5.645 6.363-4.88 5.687.774 11.05.349 16.309-1.612 9.804-3.664 16.796-9.332 20.238-16.868 3.562-7.804 6.996-15.804 8.515-23.921 3.985-21.305 2.145-42.704-.316-64.047-.207-1.797-.605-3.578-.91-5.368h-1.227c-.43 1.063-.91 2.118-1.273 3.192-2.598 7.664-6.43 14.945-12.899 21.289-9.8 9.613-22.984 9.562-32.851-.281.832-.453 1.582-1.02 2.492-1.34 12.727-4.457 20.316-12.262 25.543-21.54 6.867-12.187 9.652-25.058 9.176-38.112-.606-16.418-1.996-32.84-3.934-49.204-2.55-21.554-1.781-43.02 2.715-64.316 3.703-17.523 10.465-34.602 19.629-51 11.543-20.645 18.395-41.711 18.336-64.285-.344-126.707-.086-253.41-.086-380.117 0-188.559.016-377.118-.25-565.68-.012-9.457-1.332-19.14-4.34-28.309-3.762-11.464-10.203-22.433-14.933-33.742-6.157-14.71-13-29.355-17.29-44.379-5.105-17.89-6.523-36.207-4.312-54.55 1.43-11.895 3.047-23.786 4.09-35.7 1.457-16.672 2.215-33.39-4.238-49.672-5.473-13.793-13.813-26.187-32.649-32.847-.746-.262-1.27-2.301-.707-2.914 4.977-5.434 16.309-7.59 23.695-4.262 3.637 1.64 7.512 3.773 9.559 6.414 4.762 6.137 8.5 12.707 12.613 19.117.68 1.051 1.172 2.164 1.75 3.246q.65-.066 1.305-.136c.184-.938.453-1.872.539-2.817.66-7.222 1.195-14.457 1.953-21.676 1.399-13.347 1.29-26.68-1.164-39.941-1.957-10.535-5.285-20.824-13.66-29.773-8.274-8.84-18.09-15.063-34.05-10.825-2.626.7-4.325-.465-4.458-2.394-.113-1.567-.027-3.285.727-4.719 2.804-5.348 9.035-6.941 16.035-7.348 3.27-.187 6.57-.03 9.86-.03.21-.43.413-.86.62-1.294-4.082-2.383-7.976-4.972-12.281-7.113-13.48-6.692-27.809-8.3-42.8-2.973-22 7.82-33.305 32.574-22.005 48.621 2.141 3.035 5.547 5.84 9.2 7.97 4.398 2.562 10.058 1.597 13.863-1.485 3.836-3.11 3.992-4.91-.336-8.965-3.707-3.465-4.324-7.278-3.668-11.387.598-3.766 3.883-5.926 8.383-7.168 4.133-1.14 7.234.383 9.926 2.504 1.27 1.004 2.527 2.04 3.558 3.18 8.809 9.715 6.07 26.246-5.777 35.16-9.98 7.508-23.301 8.625-35.14 2.77-8.356-4.133-13.72-10.137-16.723-17.028-8.79-20.144-5.434-39.367 10.093-57.129 16.442-18.816 49.098-25.012 75.133-14.293 16.11 6.633 27.32 16.793 35.711 28.856 12.719 18.28 16.129 38.12 17.262 58.148 1.086 19.188.62 38.426-3.344 57.504-3.086 14.852-6.168 29.707-9.262 44.559-.636 3.07-1.332 6.132-2 9.199l1.371.36c.938-.958 1.934-1.891 2.813-2.88 3.508-3.937 6.605-8.117 10.605-11.754 2.66-2.414 3.88-4.714 3.868-7.777-.079-43.539-.215-87.078.023-130.617.09-16.66-5.363-32.059-16.367-46.512-12.407-16.3-30.785-26.887-55.766-29.758-14.027-1.609-28.531-.836-42.793-1.48-6.07-.274-10.094 1.582-13.457 4.902-.84.828-1.672 1.664-2.558 2.465-22.477 20.332-33.946 43.813-37.5 69.79-.825 6.026-3.739 12.1-7.149 17.667-2.922 4.774-8.504 8.258-16.45 8.324-7.886.063-12.96-3.125-16.741-7.93-5.352-6.792-5.739-14.003-3.121-21.34.71-1.976 2.75-3.89 4.796-5.355 2.352-1.68 5.77-3.187 8.829-1.465 2.48 1.395 4.867 3.61 5.629 5.778 1.277 3.633.136 7.195-3.52 10.281-1.195 1.008-.816 3.04-1.156 4.602 2.222.093 4.508.464 6.633.18 1.308-.18 2.84-1.196 3.445-2.13 1.863-2.879 3.863-5.808 4.863-8.886 2.77-8.543.77-16.926-2.773-25.121-8.946-20.707-26.364-36.246-52.336-46.48-13.293-5.24-27.7-5.306-42.278-5.298-181.144.086-362.293.051-543.437.114-4.922.003-10.05.203-14.73 1.21-36.243 7.82-59.067 25.758-70.254 52.063-4.043 9.504-5.012 19.281.054 28.77 1.297 2.43 4.461 4.57 7.453 6.128 1.22.637 4.25-.629 6.457-1.027-.535-1.375-.851-2.828-1.656-4.11-1.457-2.335-3.86-4.452-4.68-6.878-1.25-3.711 2.27-8.395 6.055-9.215 4.672-1.016 9.414.785 12.227 4.64 6.164 8.45 3.172 21.672-6.368 28.114-7.289 4.922-18.859 4.812-24.492-.84-3.605-3.61-6.933-7.828-8.242-12.129-2.207-7.238-2.422-14.793-3.98-22.156-4.813-22.692-17.586-42.766-37.028-60.598-3.14-2.887-6.91-4.203-12.117-4.074-10.738.262-21.504-.125-32.238.14-14.309.356-28.27 2.243-40.453 8.18-6.192 3.016-12.446 6.34-17.29 10.422-19.417 16.371-28.03 36.242-28.523 57.477-.976 41.914-.195 83.851-.433 125.777-.04 6.277.293 11.992 6.945 16.715 2.617 1.86 4.062 4.605 6.125 6.906 1.375 1.535 2.898 2.996 4.352 4.492.968-1.34 1-2.328.742-3.277-6.453-24.035-11.196-48.277-12.418-72.75-1.219-24.367-1.575-48.812 7.168-72.684 6.52-17.816 17.168-33.793 37.675-45.273 11.079-6.203 23.688-9.676 37.387-8.844 22.692 1.383 38.352 11.14 49.043 25.434 8.828 11.8 11.762 24.539 9.813 37.992-1.313 9.016-4.825 17.313-12.172 24.629-7.168 7.14-20.008 10.621-30.938 8.316-6.37-1.347-11.347-4.308-15.289-8.129-9.37-9.074-10.02-24.285-1.594-33.902 2.883-3.297 6.93-4.934 12.278-4.223 4.75.633 6.84 3.293 8.258 6.38 1.75 3.831.464 7.25-2.543 10.433-.891.945-1.989 1.785-2.797 2.762-3.63 4.386.57 9.898 7.5 10.285 7.863.437 12.148-3.13 15.39-7.453 9.465-12.618 5.532-32.47-8.23-42.805-7.402-5.559-15.945-9.426-26.824-10.05-14.782-.852-26.395 3.937-36.836 10.933-.797.531-1.16 1.414-2.324 2.89 3.488 0 5.918-.101 8.32.028 2.625.136 5.289.3 7.828.781 6.113 1.156 9.918 5.078 9.727 9.723-.137 3.316-1.301 3.836-5.72 3.414-3.948-.375-8.144-.875-11.945-.29-11.527 1.778-17.949 8.243-23.308 15.286-9.602 12.62-11.707 26.597-12.14 40.676-.344 11.261.425 22.546 1.015 33.812.266 5.063 1.3 10.098 1.988 15.145 1.996-1.797 2.813-3.743 4.02-5.551 3.36-5.04 6.195-10.371 10.48-14.953 8.043-8.606 17.504-12.235 31.531-4.645 4.063 2.2 4.262 2.903-.164 4.64-10.523 4.122-18.195 10.223-23.699 18-9.785 13.829-13.285 28.86-12.851 44.067.55 19.266 3.632 38.485 5.035 57.746 1.476 20.278.926 40.649-6.215 60.32-7.125 19.641-16.133 38.923-24.84 58.231-6.543 14.516-10.816 29.195-10.828 44.582-.027 37.867-.54 75.735-.586 113.602-.164 124.976-.25 249.953-.29 374.933-.058 183.145-.148 366.29-.015 549.438.07 92.71.61 185.422.91 278.133.067 18.894 6.778 36.386 20.418 52.34 4.727 5.53 9.989 10.75 17.465 14.648 7.117 3.707 13.723 7.785 22.7 9.078 8.023 1.156 15.777 3.836 23.816 4.305 17.492 1.027 35.09 1.465 52.644 1.453 90.918-.059 181.836-.38 272.75-.5 21.325-.028 42.649.57 63.97.539 87.956-.133 175.913-.367 263.87-.711 2.762-.012 6.215-1.082 8.149-2.531 13.031-9.77 22.242-21.22 26.531-34.688.363-1.14.953-2.242 1.613-3.773 12.707 15.402 3.422 28.375-6.144 41.687 2.863-.289 5.433-.707 7.199-1.82 4.965-3.129 9.328-6.8 14.418-9.805 14.68-8.648 30.344-15.351 50.344-12.445 7.539 1.098 14.156 3.437 19.586 7.437.906.665 1.421 2.114 1.117 3.016-.203.606-2.125 1.168-3.356 1.266-4.324.347-8.672.664-13.015.675-15.02.036-28.157 4.16-40.547 9.97-.524.241-.785.788-1.39 1.421 1.12.152 1.702.3 2.288.3 16.973.02 33.957.15 50.93-.073 3.226-.043 6.828-1.016 9.57-2.34 11.633-5.637 22.344-12.098 30.301-20.711 10.508-11.371 19.125-23.262 17.941-37.652-.406-4.895-1.855-9.614-7.183-13.055-2.094-1.348-4.27-1.66-6.602.004-2.437 1.738-1.593 3.058.125 4.758 1.543 1.527 2.84 3.312 3.598 5.132 1.508 3.618-1.121 8.25-5.024 9.563-3.57 1.2-7.027-.156-10.48-4.113-5.039-5.786-4.562-18.22.922-23.766 7.719-7.813 19.531-8.367 28.137-1.105 6.793 5.734 8.488 12.976 9.48 20.21 2.895 21.075 14 39.715 30.586 56.68 3.059 3.125 6.418 6.629 13.02 6.344 16.441-.711 32.957-.809 49.304-2.098 8.207-.648 16.121-3.363 24.078-5.262 0 0 .145.079.774-.015m26.59-324.184c-1.024 14.59-2.106 29.18.785 43.735 2.32 11.683 6.18 23.027 13.55 33.574 2.364 3.379 5.184 6.578 7.794 9.855l1.117-.449v-147.871c-11.45 19.496-19.57 39.547-23.246 61.156M51.188 296.156 49.82 428.254c.508.05 1.024.105 1.532.156.617-1.242 1.316-2.465 1.843-3.726 3.805-9.118 8.133-18.145 11.223-27.395 3.98-11.902 7.742-23.902 10.164-36.016 2.734-13.664 2.39-27.46-.676-41.199-3.258-14.55-9.168-28.367-19.136-41.183-.598-.766-.993-1.621-1.485-2.434q-1.05.457-2.097.918Zm1086.05 116.953q2.46 5.56 4.914 11.121c.36-.085.715-.171 1.078-.253V276.902c-1.171.762-1.738 1-2.054 1.356-1.188 1.347-2.395 2.695-3.422 4.113-10.402 14.39-16.418 29.684-18.274 45.996-1.558 13.625-1.324 27.238 2.305 40.528 4.02 14.722 10.05 29.148 15.453 44.214M989.672 56.33c2.816-3.356 5.633-6.708 8.715-10.372h-68.489c19.012 11.664 32.614 25.02 39.399 41.973 6.91-10.785 13.441-20.989 20.375-31.602m-784.75-3.61c8.637 10.587 15.394 21.821 21.289 33.79 8.016-16.645 22.152-29.645 40.457-40.625h-67.777c2.172 2.445 3.93 4.422 6.03 6.836m760.466 1801.89c-6.555 10.184-15.54 19.145-26.563 27.778h52.406l-21.953-33.473a667 667 0 0 0-3.89 5.695m0 0"/></svg>